<svg width="18" height="20" viewBox="0 0 18 20" fill="none" xmlns="http://www.w3.org/2000/svg">
<path d="M5.35206 18.252C5.78721 18.8023 6.34171 19.2464 6.97367 19.551C7.60564 19.8555 8.29855 20.0125 9.00006 20.01C9.70158 20.0125 10.3945 19.8555 11.0264 19.551C11.6584 19.2464 12.2129 18.8023 12.6481 18.252C10.2271 18.5797 7.77303 18.5797 5.35206 18.252ZM15.7501 7.01001V7.71401C15.7501 8.55901 15.9901 9.38501 16.4421 10.088L17.5501 11.811C18.5611 13.385 17.7891 15.524 16.0301 16.021C11.4338 17.3227 6.56635 17.3227 1.97006 16.021C0.211062 15.524 -0.560938 13.385 0.450062 11.811L1.55806 10.088C2.01128 9.3792 2.25178 8.55532 2.25106 7.71401V7.01001C2.25106 3.14401 5.27306 0.0100098 9.00006 0.0100098C12.7271 0.0100098 15.7501 3.14401 15.7501 7.01001Z" fill="#000429"/>
</svg>
