<svg width="18" height="18" viewBox="0 0 18 18" fill="none" xmlns="http://www.w3.org/2000/svg">
<path d="M16.7921 2.09124L12.3359 2.09126V1.03223C12.3359 0.738645 12.0868 0.500854 11.7793 0.500854C11.4718 0.500854 11.2228 0.738645 11.2228 1.03223V2.09099H6.77038V1.03223C6.77038 0.738645 6.52132 0.500854 6.21383 0.500854C5.90634 0.500854 5.65728 0.738645 5.65728 1.03223V2.09099H1.2088C0.594092 2.09099 0.0957031 2.56684 0.0957031 3.15374V16.4381C0.0957031 17.025 0.594092 17.5009 1.2088 17.5009H16.7921C17.4068 17.5009 17.9052 17.025 17.9052 16.4381V3.15374C17.9052 2.56709 17.4068 2.09124 16.7921 2.09124ZM16.7921 16.4381H1.2088V3.15374H5.65728V3.6891C5.65728 3.98267 5.90634 4.22048 6.21383 4.22048C6.52132 4.22048 6.77038 3.98267 6.77038 3.6891V3.15401H11.2228V3.68937C11.2228 3.98295 11.4718 4.22074 11.7793 4.22074C12.0868 4.22074 12.3359 3.98295 12.3359 3.68937V3.15401H16.7921V16.4381ZM12.8963 8.99911H14.0094C14.3166 8.99911 14.5659 8.76105 14.5659 8.46774V7.40499C14.5659 7.11167 14.3166 6.87361 14.0094 6.87361H12.8963C12.5891 6.87361 12.3398 7.11167 12.3398 7.40499V8.46774C12.3398 8.76105 12.5891 8.99911 12.8963 8.99911ZM12.8963 13.2498H14.0094C14.3166 13.2498 14.5659 13.0121 14.5659 12.7185V11.6557C14.5659 11.3624 14.3166 11.1243 14.0094 11.1243H12.8963C12.5891 11.1243 12.3398 11.3624 12.3398 11.6557V12.7185C12.3398 13.0123 12.5891 13.2498 12.8963 13.2498ZM9.55701 11.1243H8.44392C8.1367 11.1243 7.88737 11.3624 7.88737 11.6557V12.7185C7.88737 13.0121 8.1367 13.2498 8.44392 13.2498H9.55701C9.86423 13.2498 10.1136 13.0121 10.1136 12.7185V11.6557C10.1136 11.3627 9.86423 11.1243 9.55701 11.1243ZM9.55701 6.87361H8.44392C8.1367 6.87361 7.88737 7.11167 7.88737 7.40499V8.46774C7.88737 8.76105 8.1367 8.99911 8.44392 8.99911H9.55701C9.86423 8.99911 10.1136 8.76105 10.1136 8.46774V7.40499C10.1136 7.1114 9.86423 6.87361 9.55701 6.87361ZM5.10463 6.87361H3.99154C3.68432 6.87361 3.43499 7.11167 3.43499 7.40499V8.46774C3.43499 8.76105 3.68432 8.99911 3.99154 8.99911H5.10463C5.41185 8.99911 5.66118 8.76105 5.66118 8.46774V7.40499C5.66118 7.1114 5.41185 6.87361 5.10463 6.87361ZM5.10463 11.1243H3.99154C3.68432 11.1243 3.43499 11.3624 3.43499 11.6557V12.7185C3.43499 13.0121 3.68432 13.2498 3.99154 13.2498H5.10463C5.41185 13.2498 5.66118 13.0121 5.66118 12.7185V11.6557C5.66118 11.3627 5.41185 11.1243 5.10463 11.1243Z" fill="#000429"/>
</svg>
