<svg width="22" height="23" viewBox="0 0 22 23" fill="none" xmlns="http://www.w3.org/2000/svg">
<path d="M10.9905 0.0708008C8.81546 0.0708008 6.68923 0.715785 4.88072 1.92419C3.07222 3.1326 1.66266 4.85015 0.830293 6.85965C-0.00207097 8.86916 -0.219855 11.0804 0.20448 13.2136C0.628816 15.3469 1.67621 17.3065 3.21422 18.8445C4.75223 20.3825 6.71177 21.4299 8.84505 21.8542C10.9783 22.2785 13.1895 22.0608 15.199 21.2284C17.2085 20.396 18.9261 18.9865 20.1345 17.178C21.3429 15.3695 21.9879 13.2432 21.9879 11.0682C21.9879 8.15148 20.8292 5.35426 18.7668 3.29185C16.7044 1.22945 13.9072 0.0708008 10.9905 0.0708008ZM9.41948 15.4593L5.49185 11.5316L6.74084 10.2826L9.41948 12.9613L15.2402 7.14053L16.4939 8.38638L9.41948 15.4593Z" fill="white"/>
</svg>
