<svg width="25" height="26" viewBox="0 0 25 26" fill="none" xmlns="http://www.w3.org/2000/svg">
<path d="M22.2031 4.8114L20.0938 6.92078V22.7031H24.3125V6.92078L22.2031 4.8114ZM23.4688 21.8594H20.9375V19.75H23.4688V21.8594ZM20.9375 18.9062V7.26671L22.2031 6.00109L23.4688 7.26671V18.9062H20.9375Z" fill="white"/>
<path d="M17.3814 3.29688H17.1409V1.60938C17.1409 1.3856 17.052 1.17099 16.8938 1.01275C16.7356 0.85452 16.5209 0.765625 16.2972 0.765625H15.4534C15.2296 0.765625 15.015 0.85452 14.8568 1.01275C14.6986 1.17099 14.6097 1.3856 14.6097 1.60938V3.29688H4.90654V1.60938C4.90654 1.3856 4.81765 1.17099 4.65941 1.01275C4.50118 0.85452 4.28657 0.765625 4.06279 0.765625H3.21904C2.99527 0.765625 2.78066 0.85452 2.62242 1.01275C2.46419 1.17099 2.37529 1.3856 2.37529 1.60938V3.29688H1.71295C1.4215 3.31851 1.15035 3.45426 0.958403 3.67464C0.766456 3.89503 0.669212 4.18224 0.687794 4.47391V24.0573C0.669212 24.349 0.766456 24.6362 0.958403 24.8566C1.15035 25.077 1.4215 25.2127 1.71295 25.2344H17.3814C17.6728 25.2127 17.944 25.077 18.1359 24.8566C18.3279 24.6362 18.4251 24.349 18.4065 24.0573V4.47391C18.4251 4.18224 18.3279 3.89503 18.1359 3.67464C17.944 3.45426 17.6728 3.31851 17.3814 3.29688ZM15.4534 1.60938H16.2972V4.14062H15.4534V1.60938ZM3.21904 1.60938H4.06279V4.14062H3.21904V1.60938ZM17.5628 24.0573C17.5628 24.2556 17.4531 24.3906 17.3814 24.3906H1.71295C1.64123 24.3906 1.53154 24.2556 1.53154 24.0573V4.47391C1.53154 4.27562 1.64123 4.14062 1.71295 4.14062H2.37529C2.37529 4.3644 2.46419 4.57901 2.62242 4.73725C2.78066 4.89548 2.99527 4.98438 3.21904 4.98438H4.06279C4.28657 4.98438 4.50118 4.89548 4.65941 4.73725C4.81765 4.57901 4.90654 4.3644 4.90654 4.14062H14.6097C14.6097 4.3644 14.6986 4.57901 14.8568 4.73725C15.015 4.89548 15.2296 4.98438 15.4534 4.98438H16.2972C16.5209 4.98438 16.7356 4.89548 16.8938 4.73725C17.052 4.57901 17.1409 4.3644 17.1409 4.14062H17.3814C17.4531 4.14062 17.5628 4.27562 17.5628 4.47391V24.0573Z" fill="white"/>
<path d="M15.875 8.78125H3.21875V9.625H15.875V8.78125Z" fill="white"/>
<path d="M15.875 11.3125H3.21875V12.1562H15.875V11.3125Z" fill="white"/>
<path d="M15.875 13.8438H3.21875V14.6875H15.875V13.8438Z" fill="white"/>
<path d="M15.875 16.375H3.21875V17.2188H15.875V16.375Z" fill="white"/>
</svg>
