<svg width="23" height="24" viewBox="0 0 23 24" fill="none" xmlns="http://www.w3.org/2000/svg">
<path d="M18.1087 17.6286L22.7467 16.7383L11.1275 9.76694L10.8535 9.95082L13.4404 22.8931L15.9655 19.0455L18.4142 22.4809C18.8793 23.1278 19.733 23.3366 20.3249 22.9461C20.9135 22.5545 21.0191 21.7108 20.5575 21.0629L18.1087 17.6286ZM11.3578 20.9331C9.49429 20.9331 7.7577 20.4182 6.2761 19.541C7.60943 19.554 5.28424 17.5875 6.88604 17.2857C8.56646 16.9677 9.27413 15.1169 8.73608 15.145C8.19915 15.1721 7.17697 14.8779 6.45807 14.0082C5.73805 13.132 5.10789 13.3321 4.3654 13.4695C3.71614 13.5928 2.91637 15.4014 2.71755 15.8762C2.21207 14.9438 1.86947 13.9195 1.71446 12.8367C2.53895 12.4214 3.88464 11.7226 4.37102 11.3365C5.08767 10.7642 4.13176 10.5328 4.01381 10.1877C3.89699 9.84266 4.01381 9.03897 4.01381 8.2407C4.01381 7.43485 5.68301 7.43485 6.27497 6.63333C6.7007 6.06112 5.92114 4.7988 5.43476 4.11518C7.07812 2.89722 9.12922 2.16492 11.3578 2.16492C11.9487 2.16492 12.5249 2.22442 13.0877 2.32177C13.2528 3.31042 13.5965 4.67008 14.2604 5.02487C15.3353 5.59816 16.6361 6.86048 17.1169 7.08763C17.5954 7.31695 18.1873 9.27045 18.0705 10.0731C17.9863 10.6399 17.2561 11.264 16.9574 11.8643L21.9222 14.8432C22.2727 13.8048 22.4659 12.7004 22.4659 11.5506C22.4659 5.65333 17.4808 0.857178 11.3589 0.857178C5.23369 0.857178 0.251953 5.65333 0.251953 11.5506C0.251953 17.449 5.23369 22.2473 11.3589 22.2473C11.5915 22.2473 11.8184 22.2268 12.0475 22.2138L11.788 20.9114C11.6442 20.9179 11.5027 20.9331 11.3578 20.9331ZM20.9832 12.9352C20.7731 12.1326 20.3665 11.3581 19.5016 10.7599C18.9096 10.3575 18.4266 8.58142 18.7861 8.00597C19.0006 7.66308 19.5589 7.36129 19.97 7.17308C20.69 8.48083 21.1011 9.96922 21.1011 11.5506C21.1011 12.0222 21.0528 12.4819 20.9832 12.9352ZM15.961 21.2738C15.9846 21.2619 16.0093 21.2511 16.0329 21.2403C16.0239 21.2273 16.0149 21.2165 16.0071 21.2035C15.9936 21.2241 15.9756 21.2522 15.961 21.2738Z" fill="white"/>
</svg>
