<svg width="32" height="32" viewBox="0 0 32 32" fill="none" xmlns="http://www.w3.org/2000/svg">
<path d="M27.6743 26.8796L22.6125 29.891C22.3594 30.0681 21.9797 30.0681 21.7266 29.891L16.707 26.8796C16.4961 26.7467 16.4961 26.481 16.707 26.3924L17.8881 25.6838C17.9725 25.6396 18.0568 25.6396 18.1412 25.6838L21.2205 27.4996C21.5157 27.6767 21.8532 27.7653 22.1906 27.7653C22.5281 27.7653 22.8656 27.6767 23.1608 27.4996L26.2401 25.6838C26.3245 25.6396 26.4088 25.6396 26.4932 25.6838L27.6743 26.3924C27.8852 26.481 27.8852 26.7467 27.6743 26.8796ZM27.6743 23.4696L22.6125 26.481C22.3594 26.6581 21.9797 26.6581 21.7266 26.481L16.707 23.4696C16.4961 23.3367 16.4961 23.071 16.707 22.9824L17.8881 22.2738C17.9725 22.2296 18.0568 22.2296 18.1412 22.2738L21.2205 24.0896C21.5157 24.2667 21.8532 24.3553 22.1906 24.3553C22.5281 24.3553 22.8656 24.2667 23.1608 24.0896L26.2401 22.2738C26.3245 22.2296 26.4088 22.2296 26.4932 22.2738L27.6743 22.9824C27.8852 23.071 27.8852 23.3367 27.6743 23.4696ZM21.7688 23.1153L16.707 20.1038C16.4961 19.971 16.4961 19.7053 16.707 19.6167L21.7688 16.6053C22.0219 16.4281 22.4016 16.4281 22.6546 16.6053L27.7165 19.6167C27.9274 19.7496 27.9274 20.0153 27.7165 20.1038L22.6546 23.1153C22.4016 23.2481 22.0219 23.2481 21.7688 23.1153Z" fill="white"/>
<mask id="path-2-inside-1_3558_4640" fill="white">
<path d="M16.6963 21.249C16.9132 21.1175 16.9132 20.8546 16.6963 20.7669L15.4813 20.0657H15.4379V19.496C15.4379 19.496 15.4379 18.751 16.0888 18.3566C16.2623 18.2689 16.6095 18.0936 17 17.8745C16.8264 17.7869 16.6529 17.6992 16.4793 17.6554C15.6982 17.261 14.57 16.8665 14.2229 15.8586C14.0059 15.3327 14.1361 14.7629 14.3965 14.2809C14.8738 13.7988 15.3077 13.3606 15.6982 12.747C15.785 12.5717 15.8718 12.4841 15.9586 12.3088C17.0434 10.7311 17.1736 8.58367 16.5661 6.78685C15.9152 4.85857 14.2229 3.54382 12.1401 3.5H11.8363C9.75351 3.54382 8.01783 4.85857 7.41034 6.78685C6.75946 8.62749 6.93302 10.7311 8.01783 12.3088C8.06122 12.4841 8.1914 12.5717 8.27818 12.747C8.66871 13.3606 9.14602 13.755 9.57994 14.2809C9.79691 14.7629 9.88369 15.2888 9.75351 15.8586C9.44977 16.8227 8.32157 17.261 7.49712 17.6554C5.67465 18.4442 3.41826 19.5837 3.07112 21.8187C2.68059 23.6594 3.93897 25.5 5.84822 25.5H15.4379L16.6963 24.6673C16.9132 24.5359 16.9132 24.2729 16.6963 24.1853L15.4813 23.4841H15.4379V22.0817L16.6963 21.249Z"/>
</mask>
<path d="M16.6963 21.249L16.178 20.3938L16.161 20.4041L16.1444 20.415L16.6963 21.249ZM16.6963 20.7669L16.1964 21.633L16.2569 21.668L16.3217 21.6941L16.6963 20.7669ZM15.4813 20.0657L15.9811 19.1996L15.7491 19.0657H15.4813V20.0657ZM15.4379 20.0657H14.4379V21.0657H15.4379V20.0657ZM16.0888 18.3566L15.638 17.4639L15.6035 17.4813L15.5705 17.5013L16.0888 18.3566ZM17 17.8745L17.4893 18.7466L19.1264 17.828L17.4508 16.9819L17 17.8745ZM16.4793 17.6554L16.0285 18.548L16.1273 18.5979L16.2345 18.6249L16.4793 17.6554ZM14.2229 15.8586L15.1684 15.5329L15.1587 15.5048L15.1473 15.4772L14.2229 15.8586ZM14.3965 14.2809L13.6859 13.5773L13.5848 13.6793L13.5166 13.8057L14.3965 14.2809ZM15.6982 12.747L16.5418 13.284L16.5706 13.2387L16.5944 13.1907L15.6982 12.747ZM15.9586 12.3088L15.1346 11.7422L15.0941 11.8011L15.0624 11.8651L15.9586 12.3088ZM16.5661 6.78685L15.6186 7.10667L15.6188 7.10714L16.5661 6.78685ZM12.1401 3.5L12.1611 2.50022L12.1506 2.5H12.1401V3.5ZM11.8363 3.5V2.5H11.8258L11.8153 2.50022L11.8363 3.5ZM7.41034 6.78685L8.35313 7.12024L8.35891 7.10388L8.36412 7.08734L7.41034 6.78685ZM8.01783 12.3088L8.98853 12.0685L8.94485 11.892L8.84183 11.7422L8.01783 12.3088ZM8.27818 12.747L7.38199 13.1907L7.40578 13.2387L7.43458 13.284L8.27818 12.747ZM9.57994 14.2809L10.4918 13.8705L10.4367 13.748L10.3513 13.6444L9.57994 14.2809ZM9.75351 15.8586L10.7073 16.159L10.7194 16.1206L10.7284 16.0813L9.75351 15.8586ZM7.49712 17.6554L7.89435 18.5731L7.91167 18.5656L7.92868 18.5575L7.49712 17.6554ZM3.07112 21.8187L4.04935 22.0263L4.05506 21.9994L4.05928 21.9722L3.07112 21.8187ZM15.4379 25.5V26.5H15.7388L15.9897 26.334L15.4379 25.5ZM16.6963 24.6673L16.178 23.8121L16.161 23.8224L16.1444 23.8334L16.6963 24.6673ZM16.6963 24.1853L16.1964 25.0514L16.2569 25.0863L16.3217 25.1125L16.6963 24.1853ZM15.4813 23.4841L15.9811 22.618L15.7491 22.4841H15.4813V23.4841ZM15.4379 23.4841H14.4379V24.4841H15.4379V23.4841ZM15.4379 22.0817L14.8861 21.2477L14.4379 21.5443V22.0817H15.4379ZM17.2145 22.1042C17.5759 21.8852 17.859 21.4852 17.859 20.9915C17.859 20.4688 17.5365 20.0278 17.0708 19.8397L16.3217 21.6941C16.073 21.5937 15.859 21.3281 15.859 20.9915C15.859 20.6842 16.0336 20.4813 16.178 20.3938L17.2145 22.1042ZM17.1961 19.9008L15.9811 19.1996L14.9814 20.9318L16.1964 21.633L17.1961 19.9008ZM15.4813 19.0657H15.4379V21.0657H15.4813V19.0657ZM16.4379 20.0657V19.496H14.4379V20.0657H16.4379ZM15.4379 19.496C16.4379 19.496 16.4379 19.4964 16.4379 19.4969C16.4379 19.497 16.4379 19.4974 16.4379 19.4977C16.4379 19.4982 16.4379 19.4988 16.4379 19.4993C16.4379 19.5004 16.4379 19.5014 16.4379 19.5024C16.4378 19.5043 16.4378 19.5062 16.4378 19.5078C16.4378 19.5112 16.4377 19.5139 16.4376 19.5162C16.4375 19.5206 16.4374 19.5229 16.4374 19.5233C16.4373 19.5239 16.4377 19.5176 16.4392 19.5061C16.4425 19.4816 16.4498 19.4431 16.4645 19.4007C16.4935 19.3166 16.536 19.2548 16.607 19.2118L15.5705 17.5013C14.9906 17.8527 14.7077 18.3607 14.574 18.7477C14.5073 18.9409 14.4739 19.1133 14.4569 19.2408C14.4483 19.3053 14.4435 19.3603 14.441 19.4032C14.4397 19.4247 14.4389 19.4434 14.4385 19.4589C14.4382 19.4667 14.4381 19.4737 14.438 19.4799C14.438 19.483 14.4379 19.4859 14.4379 19.4886C14.4379 19.4899 14.4379 19.4912 14.4379 19.4924C14.4379 19.4931 14.4379 19.4937 14.4379 19.4943C14.4379 19.4946 14.4379 19.495 14.4379 19.4952C14.4379 19.4956 14.4379 19.496 15.4379 19.496ZM16.5395 19.2492C16.7147 19.1607 17.0784 18.9771 17.4893 18.7466L16.5107 17.0024C16.1405 17.2101 15.8099 17.3771 15.638 17.4639L16.5395 19.2492ZM17.4508 16.9819C17.3003 16.9059 17.0249 16.7618 16.7241 16.6858L16.2345 18.6249C16.2808 18.6366 16.3526 18.6678 16.5492 18.7671L17.4508 16.9819ZM16.9301 16.7627C16.4446 16.5176 16.0966 16.3838 15.7318 16.1476C15.4052 15.9361 15.2403 15.7417 15.1684 15.5329L13.2774 16.1842C13.5527 16.9834 14.1254 17.4902 14.6449 17.8265C15.1263 18.1381 15.733 18.3988 16.0285 18.548L16.9301 16.7627ZM15.1473 15.4772C15.0901 15.3384 15.0909 15.0994 15.2764 14.7561L13.5166 13.8057C13.1813 14.4265 12.9218 15.3269 13.2985 16.2399L15.1473 15.4772ZM15.1071 14.9845C15.579 14.5078 16.0862 13.9998 16.5418 13.284L14.8546 12.21C14.5292 12.7213 14.1686 13.0898 13.6859 13.5773L15.1071 14.9845ZM16.5944 13.1907C16.6074 13.1644 16.6195 13.1446 16.663 13.0788C16.7063 13.0132 16.781 12.9014 16.8548 12.7524L15.0624 11.8651C15.0494 11.8914 15.0373 11.9111 14.9938 11.977C14.9505 12.0426 14.8758 12.1543 14.802 12.3033L16.5944 13.1907ZM16.7826 12.8753C18.0801 10.9882 18.2008 8.49971 17.5134 6.46657L15.6188 7.10714C16.1463 8.66762 16.0066 10.4739 15.1346 11.7422L16.7826 12.8753ZM17.5136 6.46704C16.7341 4.15777 14.6841 2.55331 12.1611 2.50022L12.119 4.49978C13.7618 4.53434 15.0963 5.55936 15.6186 7.10667L17.5136 6.46704ZM12.1401 2.5H11.8363V4.5H12.1401V2.5ZM11.8153 2.50022C9.30685 2.553 7.1938 4.14621 6.45655 6.48637L8.36412 7.08734C8.84186 5.57092 10.2002 4.53465 11.8574 4.49978L11.8153 2.50022ZM6.46755 6.45347C5.72493 8.55351 5.90369 10.999 7.19382 12.8753L8.84183 11.7422C7.96236 10.4631 7.79398 8.70147 8.35313 7.12024L6.46755 6.45347ZM7.04712 12.549C7.11817 12.8361 7.26103 13.0327 7.32889 13.1241C7.41207 13.2361 7.38963 13.2061 7.38199 13.1907L9.17437 12.3033C9.12296 12.1995 9.06857 12.1159 9.02448 12.0533C9.00295 12.0227 8.98291 11.9959 8.96807 11.9762C8.94969 11.9517 8.94457 11.9452 8.93458 11.9317C8.9048 11.8916 8.96087 11.9568 8.98853 12.0685L7.04712 12.549ZM7.43458 13.284C7.67702 13.6649 7.94048 13.9677 8.17782 14.2249C8.43084 14.4992 8.61498 14.6826 8.80861 14.9173L10.3513 13.6444C10.111 13.3532 9.83951 13.0765 9.64776 12.8687C9.44033 12.6439 9.26987 12.4427 9.12179 12.21L7.43458 13.284ZM8.66804 14.6913C8.80999 15.0067 8.85306 15.3101 8.77864 15.6358L10.7284 16.0813C10.9143 15.2676 10.7838 14.5192 10.4918 13.8705L8.66804 14.6913ZM8.79973 15.5581C8.74596 15.7288 8.60162 15.9168 8.26953 16.1361C7.9219 16.3657 7.53355 16.5294 7.06556 16.7533L7.92868 18.5575C8.28514 18.3869 8.87312 18.1343 9.37164 17.8051C9.88569 17.4656 10.4573 16.9525 10.7073 16.159L8.79973 15.5581ZM7.09989 16.7377C6.18037 17.1357 5.05532 17.6607 4.10927 18.4114C3.15027 19.1724 2.30745 20.2199 2.08297 21.6653L4.05928 21.9722C4.18193 21.1825 4.64088 20.5427 5.35248 19.9781C6.07703 19.4031 6.9914 18.9639 7.89435 18.5731L7.09989 16.7377ZM2.0929 21.6112C1.59271 23.9686 3.19992 26.5 5.84822 26.5V24.5C4.67801 24.5 3.76848 23.3501 4.04935 22.0263L2.0929 21.6112ZM5.84822 26.5H15.4379V24.5H5.84822V26.5ZM15.9897 26.334L17.2481 25.5013L16.1444 23.8334L14.8861 24.666L15.9897 26.334ZM17.2145 25.5226C17.5759 25.3036 17.859 24.9035 17.859 24.4099C17.859 23.8871 17.5365 23.4462 17.0708 23.2581L16.3217 25.1125C16.073 25.012 15.859 24.7464 15.859 24.4099C15.859 24.1025 16.0336 23.8996 16.178 23.8121L17.2145 25.5226ZM17.1961 23.3191L15.9811 22.618L14.9814 24.3502L16.1964 25.0514L17.1961 23.3191ZM15.4813 22.4841H15.4379V24.4841H15.4813V22.4841ZM16.4379 23.4841V22.0817H14.4379V23.4841H16.4379ZM15.9897 22.9156L17.2481 22.083L16.1444 20.415L14.8861 21.2477L15.9897 22.9156Z" fill="white" mask="url(#path-2-inside-1_3558_4640)"/>
</svg>
