<svg width="28" height="28" viewBox="0 0 28 28" fill="none" xmlns="http://www.w3.org/2000/svg">
<path d="M19.4453 15.7598C17.7586 15.7598 16.3906 17.1277 16.3906 18.8145C16.3906 20.5012 17.7586 21.8691 19.4453 21.8691C21.132 21.8691 22.5 20.5012 22.5 18.8145C22.5 17.1277 21.132 15.7598 19.4453 15.7598ZM19.4453 19.9434C18.8211 19.9434 18.3164 19.4387 18.3164 18.8145C18.3164 18.1902 18.8211 17.6855 19.4453 17.6855C20.0695 17.6855 20.5742 18.1902 20.5742 18.8145C20.5742 19.4387 20.0695 19.9434 19.4453 19.9434ZM26.2188 2.57812H19.1797C19.1797 1.55215 18.3463 0.71875 17.3203 0.71875H14.6641C13.6381 0.71875 12.8047 1.55215 12.8047 2.57812H5.76562C5.17793 2.57812 4.70312 3.05293 4.70312 3.64062V10.2812H1.78125C1.19355 10.2812 0.71875 10.7561 0.71875 11.3438V26.2188C0.71875 26.8064 1.19355 27.2812 1.78125 27.2812H12.9375C13.5252 27.2812 14 26.8064 14 26.2188V25.6875H26.2188C26.8064 25.6875 27.2812 25.2127 27.2812 24.625V3.64062C27.2812 3.05293 26.8064 2.57812 26.2188 2.57812ZM12.5391 4.70312H14.9297V2.84375H17.0547V4.70312H19.4453V6.29688H12.5391V4.70312ZM11.875 25.1562H2.84375V17.4531H11.875V25.1562ZM11.875 15.3281H2.84375V12.4062H11.875V15.3281ZM24.8906 23.2969H14V11.3438C14 10.7561 13.5252 10.2812 12.9375 10.2812H7.09375V4.96875H10.4141V8.42188H21.5703V4.96875H24.8906V23.2969ZM20.375 10.5469V13.7344C20.375 13.8805 20.4945 14 20.6406 14H22.2344C22.3805 14 22.5 13.8805 22.5 13.7344V10.5469C22.5 10.4008 22.3805 10.2812 22.2344 10.2812H20.6406C20.4945 10.2812 20.375 10.4008 20.375 10.5469ZM16.6562 14H18.25C18.3961 14 18.5156 13.8805 18.5156 13.7344V11.875C18.5156 11.7289 18.3961 11.6094 18.25 11.6094H16.6562C16.5102 11.6094 16.3906 11.7289 16.3906 11.875V13.7344C16.3906 13.8805 16.5102 14 16.6562 14Z" fill="white"/>
</svg>
