<svg width="22" height="22" viewBox="0 0 22 22" fill="none" xmlns="http://www.w3.org/2000/svg">
<path d="M20.5475 0.518738H1.4525C1.15071 0.518439 0.861142 0.637936 0.647393 0.850981C0.433645 1.06403 0.313195 1.3532 0.3125 1.65499V5.47624C0.313195 5.77803 0.433645 6.0672 0.647393 6.28025C0.861142 6.49329 1.15071 6.61279 1.4525 6.61249H3.36875V20.7537C3.36855 20.8324 3.39306 20.909 3.43882 20.973C3.48457 21.0369 3.54927 21.0848 3.62375 21.11C3.69877 21.1338 3.7793 21.134 3.85444 21.1106C3.92957 21.0871 3.99567 21.0411 4.04375 20.9787C4.65374 20.1637 5.47813 19.534 6.425 19.16C7.35234 18.7962 8.3632 18.7 9.3425 18.8825C9.86236 18.977 10.3661 19.145 10.8387 19.3812C11.1523 19.5483 11.452 19.7402 11.735 19.955C11.8737 20.0562 12.0162 20.1575 12.1625 20.255C13.1043 20.9448 14.2171 21.3637 15.38 21.4662C15.5787 21.4775 15.7775 21.485 15.9838 21.485C16.3888 21.485 16.8162 21.4625 17.2775 21.4212C17.5455 21.4043 17.8115 21.3642 18.0725 21.3012C18.4438 21.2037 18.6312 21.02 18.6312 20.7537V6.61249H20.5475C20.8493 6.61279 21.1389 6.49329 21.3526 6.28025C21.5664 6.0672 21.6868 5.77803 21.6875 5.47624V1.65499C21.6868 1.3532 21.5664 1.06403 21.3526 0.850981C21.1389 0.637936 20.8493 0.518439 20.5475 0.518738ZM3.36875 4.33624H2.58875V2.79499H3.36875V4.33624ZM17.8812 20.5737C17.8737 20.5775 17.87 20.5775 17.8625 20.5812C17.6494 20.6311 17.4323 20.6625 17.2137 20.675C16.618 20.7317 16.0191 20.7467 15.4213 20.72C14.3929 20.6211 13.4105 20.2453 12.5787 19.6325C12.44 19.5387 12.305 19.445 12.1737 19.3475C11.858 19.1079 11.5231 18.8947 11.1725 18.71C10.6379 18.4401 10.0669 18.2494 9.4775 18.1437C8.35949 17.9374 7.20607 18.0478 6.1475 18.4625C5.39227 18.7604 4.70296 19.2038 4.11875 19.7675V2.79499H17.8812V20.5737ZM20.9375 5.47624C20.9368 5.57911 20.8954 5.67752 20.8223 5.74992C20.7492 5.82231 20.6504 5.86279 20.5475 5.86249H18.6312V5.08624H19.7863C19.8857 5.08624 19.9811 5.04673 20.0514 4.9764C20.1217 4.90608 20.1613 4.81069 20.1613 4.71124V2.41999C20.1613 2.32053 20.1217 2.22515 20.0514 2.15482C19.9811 2.0845 19.8857 2.04499 19.7863 2.04499H2.21375C2.11429 2.04499 2.01891 2.0845 1.94858 2.15482C1.87826 2.22515 1.83875 2.32053 1.83875 2.41999V4.71124C1.83875 4.81069 1.87826 4.90608 1.94858 4.9764C2.01891 5.04673 2.11429 5.08624 2.21375 5.08624H3.36875V5.86249H1.4525C1.34962 5.86279 1.25082 5.82231 1.17772 5.74992C1.10463 5.67752 1.06319 5.57911 1.0625 5.47624V1.65499C1.06319 1.55211 1.10463 1.4537 1.17772 1.38131C1.25082 1.30892 1.34962 1.26844 1.4525 1.26874H20.5475C20.6504 1.26844 20.7492 1.30892 20.8223 1.38131C20.8954 1.4537 20.9368 1.55211 20.9375 1.65499V5.47624ZM18.6312 4.33624V2.79499H19.4113V4.33624H18.6312Z" fill="white"/>
<path d="M8.31859 4.32874C8.31859 4.42819 8.27908 4.52357 8.20876 4.5939C8.13843 4.66423 8.04305 4.70374 7.94359 4.70374H5.65234C5.55289 4.70374 5.45751 4.66423 5.38718 4.5939C5.31685 4.52357 5.27734 4.42819 5.27734 4.32874C5.27734 4.22928 5.31685 4.1339 5.38718 4.06357C5.45751 3.99324 5.55289 3.95374 5.65234 3.95374H7.94359C7.99284 3.95374 8.0416 3.96343 8.0871 3.98228C8.1326 4.00113 8.17394 4.02875 8.20876 4.06357C8.24358 4.09839 8.2712 4.13973 8.29005 4.18523C8.30889 4.23073 8.31859 4.27949 8.31859 4.32874Z" fill="white"/>
<path d="M12.5216 4.32874C12.5216 4.42819 12.4821 4.52357 12.4117 4.5939C12.3414 4.66423 12.246 4.70374 12.1466 4.70374H9.85156C9.75211 4.70374 9.65672 4.66423 9.5864 4.5939C9.51607 4.52357 9.47656 4.42819 9.47656 4.32874C9.47656 4.22928 9.51607 4.1339 9.5864 4.06357C9.65672 3.99324 9.75211 3.95374 9.85156 3.95374H12.1466C12.246 3.95374 12.3414 3.99324 12.4117 4.06357C12.4821 4.1339 12.5216 4.22928 12.5216 4.32874Z" fill="white"/>
<path d="M16.7229 4.32874C16.7229 4.42819 16.6834 4.52357 16.6131 4.5939C16.5427 4.66423 16.4473 4.70374 16.3479 4.70374H14.0566C13.9572 4.70374 13.8618 4.66423 13.7915 4.5939C13.7211 4.52357 13.6816 4.42819 13.6816 4.32874C13.6816 4.22928 13.7211 4.1339 13.7915 4.06357C13.8618 3.99324 13.9572 3.95374 14.0566 3.95374H16.3479C16.4473 3.95374 16.5427 3.99324 16.6131 4.06357C16.6834 4.1339 16.7229 4.22928 16.7229 4.32874Z" fill="white"/>
<path d="M12.1473 8.74246C12.0947 8.92099 11.9953 9.08222 11.8595 9.20946C11.7237 9.33671 11.5563 9.42535 11.3748 9.46621V9.66871C11.3748 9.76817 11.3353 9.86355 11.2649 9.93388C11.1946 10.0042 11.0992 10.0437 10.9998 10.0437C10.9003 10.0437 10.8049 10.0042 10.7346 9.93388C10.6643 9.86355 10.6248 9.76817 10.6248 9.66871V9.40621C10.4559 9.33648 10.294 9.25111 10.141 9.15121C10.081 9.11371 10.021 9.07621 9.96477 9.04621C9.87775 8.99797 9.81345 8.91714 9.78602 8.8215C9.75859 8.72586 9.77028 8.62324 9.81852 8.53621C9.86676 8.44919 9.94759 8.38489 10.0432 8.35746C10.1389 8.33003 10.2415 8.34173 10.3285 8.38996C10.396 8.42746 10.4673 8.46871 10.5385 8.51371C10.7034 8.64604 10.9023 8.72921 11.1123 8.75371C11.1788 8.75427 11.244 8.73493 11.2994 8.69818C11.3549 8.66143 11.3981 8.60895 11.4235 8.54746C11.4348 8.50246 11.4348 8.44621 11.3448 8.38621L10.426 7.77121C10.3178 7.70093 10.2252 7.60902 10.1543 7.50124C10.0833 7.39346 10.0353 7.27216 10.0135 7.14496C9.99527 7.025 10.0025 6.90254 10.0348 6.78558C10.0672 6.66862 10.1238 6.55979 10.201 6.46621C10.3128 6.32735 10.4588 6.22007 10.6248 6.15496V5.86621C10.6248 5.76675 10.6643 5.67137 10.7346 5.60105C10.8049 5.53072 10.9003 5.49121 10.9998 5.49121C11.0992 5.49121 11.1946 5.53072 11.2649 5.60105C11.3353 5.67137 11.3748 5.76675 11.3748 5.86621V6.11746C11.4882 6.14691 11.5959 6.19507 11.6935 6.25996L12.061 6.50371C12.1019 6.53125 12.137 6.56659 12.1643 6.6077C12.1915 6.64882 12.2104 6.69491 12.2198 6.74333C12.2292 6.79175 12.229 6.84155 12.2191 6.88988C12.2092 6.9382 12.1899 6.98411 12.1623 7.02496C12.1352 7.06588 12.1002 7.101 12.0594 7.12828C12.0187 7.15557 11.9729 7.17447 11.9247 7.18389C11.8766 7.19331 11.827 7.19307 11.7789 7.18316C11.7309 7.17326 11.6853 7.1539 11.6448 7.12621L11.2773 6.88246C11.2019 6.83403 11.1123 6.81248 11.0232 6.82133C10.934 6.83018 10.8504 6.8689 10.786 6.93121C10.7737 6.9447 10.7645 6.96083 10.7593 6.97837C10.7541 6.99592 10.753 7.01441 10.756 7.03246C10.7684 7.08101 10.7994 7.12276 10.8423 7.14871L11.7648 7.76371C11.9254 7.86394 12.0494 8.01333 12.1183 8.18967C12.1872 8.36601 12.1974 8.55988 12.1473 8.74246Z" fill="white"/>
<path d="M12.5223 15.7888C12.5223 15.8882 12.4828 15.9836 12.4125 16.0539C12.3422 16.1242 12.2468 16.1638 12.1473 16.1638H5.65234C5.55289 16.1638 5.45751 16.1242 5.38718 16.0539C5.31685 15.9836 5.27734 15.8882 5.27734 15.7888C5.27734 15.6893 5.31685 15.5939 5.38718 15.5236C5.45751 15.4533 5.55289 15.4138 5.65234 15.4138H12.1473C12.2468 15.4138 12.3422 15.4533 12.4125 15.5236C12.4828 15.5939 12.5223 15.6893 12.5223 15.7888Z" fill="white"/>
<path d="M16.7229 11.2062C16.7229 11.3057 16.6834 11.4011 16.6131 11.4714C16.5427 11.5417 16.4473 11.5812 16.3479 11.5812H14.0566C13.9572 11.5812 13.8618 11.5417 13.7915 11.4714C13.7211 11.4011 13.6816 11.3057 13.6816 11.2062C13.6816 11.1068 13.7211 11.0114 13.7915 10.9411C13.8618 10.8707 13.9572 10.8312 14.0566 10.8312H16.3479C16.4473 10.8312 16.5427 10.8707 16.6131 10.9411C16.6834 11.0114 16.7229 11.1068 16.7229 11.2062Z" fill="white"/>
<path d="M16.7229 12.7325C16.7229 12.8319 16.6834 12.9273 16.6131 12.9976C16.5427 13.068 16.4473 13.1075 16.3479 13.1075H14.0566C13.9572 13.1075 13.8618 13.068 13.7915 12.9976C13.7211 12.9273 13.6816 12.8319 13.6816 12.7325C13.6816 12.633 13.7211 12.5376 13.7915 12.4673C13.8618 12.397 13.9572 12.3575 14.0566 12.3575H16.3479C16.4473 12.3575 16.5427 12.397 16.6131 12.4673C16.6834 12.5376 16.7229 12.633 16.7229 12.7325Z" fill="white"/>
<path d="M16.7229 14.2587C16.7229 14.3582 16.6834 14.4536 16.6131 14.5239C16.5427 14.5942 16.4473 14.6337 16.3479 14.6337H14.0566C13.9572 14.6337 13.8618 14.5942 13.7915 14.5239C13.7211 14.4536 13.6816 14.3582 13.6816 14.2587C13.6816 14.1593 13.7211 14.0639 13.7915 13.9936C13.8618 13.9232 13.9572 13.8837 14.0566 13.8837H16.3479C16.4473 13.8837 16.5427 13.9232 16.6131 13.9936C16.6834 14.0639 16.7229 14.1593 16.7229 14.2587Z" fill="white"/>
<path d="M16.7229 15.7888C16.7229 15.8882 16.6834 15.9836 16.6131 16.0539C16.5427 16.1242 16.4473 16.1638 16.3479 16.1638H14.0566C13.9572 16.1638 13.8618 16.1242 13.7915 16.0539C13.7211 15.9836 13.6816 15.8882 13.6816 15.7888C13.6816 15.6893 13.7211 15.5939 13.7915 15.5236C13.8618 15.4533 13.9572 15.4138 14.0566 15.4138H16.3479C16.4473 15.4138 16.5427 15.4533 16.6131 15.5236C16.6834 15.5939 16.7229 15.6893 16.7229 15.7888Z" fill="white"/>
<path d="M12.5223 14.2587C12.5223 14.3582 12.4828 14.4536 12.4125 14.5239C12.3422 14.5942 12.2468 14.6337 12.1473 14.6337H5.65234C5.55289 14.6337 5.45751 14.5942 5.38718 14.5239C5.31685 14.4536 5.27734 14.3582 5.27734 14.2587C5.27734 14.1593 5.31685 14.0639 5.38718 13.9936C5.45751 13.9232 5.55289 13.8837 5.65234 13.8837H12.1473C12.2468 13.8837 12.3422 13.9232 12.4125 13.9936C12.4828 14.0639 12.5223 14.1593 12.5223 14.2587Z" fill="white"/>
<path d="M12.5223 12.7325C12.5223 12.8319 12.4828 12.9273 12.4125 12.9976C12.3422 13.068 12.2468 13.1075 12.1473 13.1075H5.65234C5.55289 13.1075 5.45751 13.068 5.38718 12.9976C5.31685 12.9273 5.27734 12.8319 5.27734 12.7325C5.27734 12.633 5.31685 12.5376 5.38718 12.4673C5.45751 12.397 5.55289 12.3575 5.65234 12.3575H12.1473C12.2468 12.3575 12.3422 12.397 12.4125 12.4673C12.4828 12.5376 12.5223 12.633 12.5223 12.7325Z" fill="white"/>
<path d="M12.5223 11.2062C12.5223 11.3057 12.4828 11.4011 12.4125 11.4714C12.3422 11.5417 12.2468 11.5812 12.1473 11.5812H5.65234C5.55289 11.5812 5.45751 11.5417 5.38718 11.4714C5.31685 11.4011 5.27734 11.3057 5.27734 11.2062C5.27734 11.1068 5.31685 11.0114 5.38718 10.9411C5.45751 10.8707 5.55289 10.8312 5.65234 10.8312H12.1473C12.2468 10.8312 12.3422 10.8707 12.4125 10.9411C12.4828 11.0114 12.5223 11.1068 12.5223 11.2062Z" fill="white"/>
</svg>
