<svg width="26" height="28" viewBox="0 0 26 28" fill="none" xmlns="http://www.w3.org/2000/svg">
<path d="M5.28125 26.657H3.65625C3.33302 26.657 3.02302 26.5236 2.79446 26.2863C2.5659 26.0489 2.4375 25.727 2.4375 25.3914V17.7976C2.4375 17.4619 2.5659 17.14 2.79446 16.9027C3.02302 16.6653 3.33302 16.532 3.65625 16.532H5.28125C5.60448 16.532 5.91448 16.6653 6.14304 16.9027C6.3716 17.14 6.5 17.4619 6.5 17.7976V25.3914C6.5 25.727 6.3716 26.0489 6.14304 26.2863C5.91448 26.5236 5.60448 26.657 5.28125 26.657Z" fill="white"/>
<path d="M16.6562 26.6555H15.0312C14.708 26.6555 14.398 26.5222 14.1695 26.2848C13.9409 26.0475 13.8125 25.7256 13.8125 25.3899V12.7336C13.8125 12.398 13.9409 12.0761 14.1695 11.8387C14.398 11.6014 14.708 11.468 15.0312 11.468H16.6562C16.9795 11.468 17.2895 11.6014 17.518 11.8387C17.7466 12.0761 17.875 12.398 17.875 12.7336V25.3899C17.875 25.7256 17.7466 26.0475 17.518 26.2848C17.2895 26.5222 16.9795 26.6555 16.6562 26.6555Z" fill="white"/>
<path d="M22.3438 26.6561H20.7188C20.3955 26.6561 20.0855 26.5228 19.857 26.2854C19.6284 26.0481 19.5 25.7262 19.5 25.3905V6.828C19.5 6.49234 19.6284 6.17042 19.857 5.93307C20.0855 5.69572 20.3955 5.56238 20.7188 5.56238H22.3438C22.667 5.56238 22.977 5.69572 23.2055 5.93307C23.4341 6.17042 23.5625 6.49234 23.5625 6.828V25.3905C23.5625 25.7262 23.4341 26.0481 23.2055 26.2854C22.977 26.5228 22.667 26.6561 22.3438 26.6561Z" fill="white"/>
<path d="M10.9687 26.6558H9.34375C9.02052 26.6558 8.71052 26.5224 8.48196 26.2851C8.2534 26.0477 8.125 25.7258 8.125 25.3901V2.60889C8.125 2.27322 8.2534 1.95131 8.48196 1.71395C8.71052 1.4766 9.02052 1.34326 9.34375 1.34326H10.9687C11.292 1.34326 11.602 1.4766 11.8305 1.71395C12.0591 1.95131 12.1875 2.27322 12.1875 2.60889V25.3901C12.1875 25.7258 12.0591 26.0477 11.8305 26.2851C11.602 26.5224 11.292 26.6558 10.9687 26.6558Z" fill="white"/>
</svg>
