<svg width="17" height="22" viewBox="0 0 17 22" fill="none" xmlns="http://www.w3.org/2000/svg">
<path d="M13.9834 0H6.32976C5.95742 0 5.75057 0.206855 5.7092 0.248226L0.248226 5.7092C0.206855 5.75057 0 5.95742 0 6.28839V18.9065C0 20.189 1.03427 21.2233 2.31678 21.2233H13.942C15.2245 21.2233 16.2588 20.189 16.2588 18.9065V2.31678C16.3002 1.03427 15.2659 0 13.9834 0ZM5.46097 2.93734V4.79903C5.46097 5.13 5.21274 5.37823 4.88178 5.37823H2.97871L5.46097 2.93734ZM14.5626 18.9479C14.5626 19.2789 14.273 19.5271 13.9834 19.5271H2.31678C1.98581 19.5271 1.73758 19.2375 1.73758 18.9479V7.19855H4.88178C6.16428 7.19855 7.19855 6.16428 7.19855 4.88178V1.73758H13.942C14.273 1.73758 14.5212 1.98581 14.5212 2.31678L14.5626 18.9479Z" fill="white"/>
</svg>
