<svg width="31" height="22" viewBox="0 0 31 22" fill="none" xmlns="http://www.w3.org/2000/svg">
<path d="M24.8305 0.474425C23.9324 1.26995 22.829 2.12808 21.757 2.34569C19.7669 2.7502 17.6267 1.81917 15.9828 2.06814C15.8759 2.08485 15.7727 2.10429 15.6706 2.1216C15.3898 2.04919 15.0944 1.9887 14.7823 1.94117C14.557 1.90715 14.3307 1.8931 14.105 1.8931C13.458 1.89467 12.81 2.00166 12.169 2.09993C11.5273 2.19928 10.8939 2.29216 10.2961 2.29216C9.98115 2.29216 9.67715 2.26734 9.38555 2.20691C8.98964 2.12808 8.55921 1.92931 8.12775 1.65121C7.69514 1.37518 7.26314 1.02092 6.85372 0.659093C6.66579 0.490591 6.45254 0.36205 6.22779 0.276195C6.00262 0.190884 5.76552 0.151468 5.5338 0.152013C5.1655 0.152013 4.81069 0.247071 4.47641 0.395048C4.18155 0.526314 3.89964 0.700144 3.62639 0.905398C3.14735 1.26238 2.69264 1.71654 2.27142 2.22423C1.64064 2.98676 1.08385 3.87086 0.676611 4.74304C0.473053 5.18043 0.306125 5.61467 0.188422 6.03481C0.0707187 6.455 0 6.86 0 7.24992C0 7.45518 0.019375 7.6571 0.0691445 7.8537C0.118793 8.05193 0.19926 8.24628 0.320838 8.42181C0.358074 8.47582 0.39749 8.51905 0.449379 8.55792C0.456947 8.5644 0.716148 8.77074 0.99751 9.03963C1.13846 9.17513 1.28432 9.3259 1.40578 9.4706C1.52621 9.61101 1.62017 9.75142 1.65529 9.82977C1.81453 10.1673 2.22013 10.9904 2.75858 11.9111C3.02855 12.3712 3.33208 12.8557 3.6577 13.3179C3.82244 13.5502 3.99313 13.7786 4.16811 13.9947C3.69124 14.5854 3.69396 15.4528 4.21558 16.0398C4.7967 16.6965 5.799 16.7564 6.45466 16.1748L6.50001 16.1343C6.21762 16.6976 6.28616 17.3996 6.72948 17.8997C7.31007 18.5554 8.3129 18.6158 8.96911 18.0342L9.22674 17.7997C8.8746 18.3781 8.92158 19.1429 9.39415 19.6764C9.97631 20.331 10.9787 20.3915 11.6348 19.812L12.0312 19.4523C11.657 20.0356 11.697 20.817 12.1782 21.3603C12.7587 22.016 13.7616 22.0769 14.4177 21.4954L15.0593 20.9445C15.1198 20.9737 15.1787 21.0001 15.2332 21.0255L15.6718 21.2815L15.668 21.2783C15.8873 21.4089 16.1141 21.5148 16.3501 21.5888C16.5855 21.6627 16.8302 21.706 17.0792 21.706C17.3487 21.706 17.6236 21.6541 17.8817 21.5396C18.1388 21.4262 18.3753 21.2502 18.5719 21.0277C18.8068 20.763 18.9629 20.4525 19.0423 20.129C19.2761 20.2138 19.5213 20.2564 19.7643 20.2564C20.0565 20.2564 20.3487 20.1959 20.6214 20.0761C20.8936 19.9562 21.1458 19.7764 21.3548 19.5404C21.614 19.2488 21.7776 18.9015 21.8483 18.5418C21.9877 18.5699 22.1281 18.5855 22.2685 18.5855C22.5623 18.5855 22.8544 18.5261 23.1266 18.4052C23.3994 18.2858 23.6515 18.1055 23.8606 17.87C24.1446 17.5503 24.3126 17.1641 24.3698 16.7688C24.4314 16.7742 24.4924 16.7764 24.5523 16.7764C24.9034 16.7764 25.2479 16.7007 25.5676 16.5657C25.8851 16.4296 26.1816 16.232 26.4198 15.9646C26.6412 15.7135 26.8086 15.4208 26.9285 15.1054C27.0479 14.7889 27.1175 14.4514 27.1186 14.1052C27.1186 13.9789 27.1078 13.8514 27.0862 13.725C28.3083 12.3652 28.9553 10.1002 29.2357 9.50614C29.5586 8.81918 30.7786 7.84383 30.7786 7.84383C32.0941 5.94514 27.2185 -1.64199 24.8305 0.474425ZM25.7415 14.6573C25.6724 14.842 25.5708 15.0115 25.471 15.1228C25.3797 15.227 25.2371 15.328 25.0708 15.3993C24.905 15.4695 24.7176 15.5079 24.5523 15.5079C24.4438 15.5079 24.3438 15.4911 24.2628 15.4641C24.258 15.462 24.2531 15.4604 24.2493 15.4587L22.4391 13.7122C22.1863 13.4692 21.7851 13.4767 21.542 13.7284C21.2985 13.9806 21.3055 14.3824 21.5577 14.6254L23.0174 16.0345C23.0234 16.0485 23.0271 16.062 23.0341 16.0761C23.0941 16.1954 23.1255 16.3294 23.1255 16.4622C23.1255 16.6663 23.0563 16.864 22.9099 17.0282C22.8251 17.1254 22.7247 17.1957 22.615 17.2442C22.5065 17.2928 22.3877 17.3177 22.2684 17.3177C22.0653 17.3166 21.8677 17.2474 21.7024 17.1016L21.6657 17.0681C21.6576 17.0606 21.6533 17.0519 21.6457 17.0433L20.059 15.3875C19.8166 15.1337 19.4147 15.125 19.163 15.367C18.9098 15.6089 18.9006 16.0118 19.142 16.2646L20.4883 17.6698C20.491 17.6746 20.4931 17.6806 20.4958 17.6849C20.5785 17.8199 20.6201 17.9754 20.6201 18.1315C20.6195 18.3362 20.5504 18.5344 20.4045 18.6991H20.4051C20.3192 18.7952 20.2188 18.8654 20.1102 18.9151C20.0012 18.9627 19.8823 18.9864 19.764 18.9864C19.5599 18.9864 19.3606 18.9172 19.1959 18.7721L19.1716 18.7521L18.6812 18.3578L17.8771 17.5046C17.6368 17.2501 17.2344 17.2383 16.9801 17.4787C16.7251 17.7184 16.7132 18.1213 16.9535 18.3757L17.7167 19.1852C17.795 19.3181 17.8371 19.4682 17.8371 19.6205C17.8355 19.8236 17.7669 20.0223 17.6222 20.1854C17.5347 20.2842 17.452 20.3415 17.3662 20.3799C17.2803 20.4172 17.189 20.4371 17.0789 20.4376C16.9768 20.4376 16.8607 20.4198 16.7311 20.3787C16.6015 20.3377 16.4616 20.274 16.3168 20.1887L16.3131 20.1854L16.0885 20.0558C16.7089 19.4703 16.7575 18.4945 16.1878 17.8513C15.6142 17.2053 14.6302 17.1395 13.9752 17.6958L14.0934 17.5888C14.7501 17.0083 14.8101 16.0054 14.2285 15.3498C13.6484 14.6942 12.645 14.6337 11.9894 15.2148L11.6005 15.5653C11.9764 14.9837 11.9365 14.2006 11.4547 13.6573C10.8731 13.0017 9.87132 12.9407 9.21511 13.5223L8.69889 13.9921C8.94083 13.4434 8.86085 12.7786 8.43587 12.3001C7.85475 11.644 6.85191 11.5841 6.19679 12.1646L5.10434 13.1334C4.9666 12.9611 4.82886 12.7769 4.6939 12.5858C4.24676 11.9507 3.82656 11.2421 3.49337 10.6352C3.16067 10.0281 2.9117 9.52049 2.80314 9.28884C2.74586 9.16732 2.67787 9.0561 2.60436 8.94917C2.47582 8.76444 2.32839 8.59055 2.17823 8.43071C1.9547 8.18925 1.72141 7.97649 1.54316 7.82149C1.45785 7.74695 1.38543 7.68483 1.33149 7.64112C1.32016 7.61569 1.30939 7.58499 1.29964 7.54606C1.28129 7.47159 1.26828 7.37168 1.26828 7.25017C1.26828 7.04927 1.30339 6.79437 1.3752 6.50701C1.50102 6.00587 1.74024 5.41342 2.0546 4.82314C2.52602 3.93426 3.17036 3.04319 3.82705 2.40369C4.15539 2.08237 4.48483 1.82583 4.78405 1.65896C4.93306 1.57638 5.07407 1.5148 5.19983 1.47696C5.32564 1.43809 5.43747 1.42083 5.53356 1.42083C5.62589 1.42138 5.7037 1.43536 5.7798 1.46291C5.85434 1.49319 5.92996 1.53533 6.01206 1.60817C6.44679 1.99433 6.92366 2.38692 7.44266 2.71962C7.95998 3.05069 8.52058 3.32612 9.13241 3.45139C9.52505 3.53132 9.91388 3.56044 10.2958 3.56044C11.0199 3.55989 11.7172 3.45357 12.3625 3.35416C12.525 3.32824 12.6838 3.30445 12.8394 3.28071C12.355 3.61445 11.8861 4.0103 11.3877 4.4753C9.96523 5.80219 8.73873 7.42291 8.0583 8.15952C7.37836 8.8951 8.64319 10.1718 10.6565 9.58637C12.6687 9.00203 13.536 7.50065 13.536 7.50065L16.063 6.5939L18.5709 7.168L24.633 12.6258L25.6807 13.6389L25.7012 13.6562C25.7433 13.6951 25.7757 13.7404 25.8038 13.8139C25.8308 13.8873 25.8492 13.9867 25.8492 14.1055C25.8501 14.2722 25.8123 14.4726 25.7415 14.6573Z" fill="white"/>
</svg>
