<svg width="27" height="28" viewBox="0 0 27 28" fill="none" xmlns="http://www.w3.org/2000/svg">
<path d="M14.115 3.60623C13.742 3.42458 13.3062 3.42458 12.9372 3.60417L3.69886 8.20269H23.3492L14.115 3.60623ZM12.4603 2.63523C13.1319 2.30825 13.9165 2.30825 14.5921 2.63734L24.6005 7.61918C25.436 8.026 25.1467 9.28269 24.2172 9.28269H2.83106C1.90273 9.28269 1.61248 8.02859 2.445 7.6204L12.4602 2.63523H12.4603ZM24.0306 24.4615V23.3815H2.97063V24.4615H24.0306ZM24.3006 25.5415H2.70063C2.25336 25.5415 1.89062 25.1788 1.89062 24.7315V23.1115C1.89062 22.6643 2.25336 22.3015 2.70063 22.3015H24.3006C24.7479 22.3015 25.1106 22.6643 25.1106 23.1115V24.7315C25.1106 25.1788 24.7479 25.5415 24.3006 25.5415ZM16.5471 14.7499C17.6367 15.1261 18.3827 16.1555 18.3827 17.3272C18.3827 18.8328 17.1624 20.0531 15.6568 20.0531C14.65 20.0531 13.7408 19.5032 13.265 18.6361C13.1215 18.3746 12.7933 18.279 12.5318 18.4225C12.2703 18.5659 12.1747 18.8942 12.3181 19.1556C12.9817 20.3651 14.2518 21.1331 15.6568 21.1331C17.7589 21.1331 19.4627 19.4293 19.4627 17.3272C19.4627 15.6914 18.4213 14.2545 16.8995 13.729C16.6176 13.6317 16.3102 13.7813 16.2129 14.0632C16.1155 14.3451 16.2651 14.6525 16.547 14.7499L16.5471 14.7499Z" fill="white"/>
<path d="M14.0507 13.8311C14.0507 12.3258 12.8302 11.1052 11.3248 11.1052C9.81945 11.1052 8.59889 12.3258 8.59889 13.8311C8.59889 15.3365 9.81945 16.5571 11.3248 16.5571C12.8302 16.5571 14.0507 15.3365 14.0507 13.8311ZM15.1307 13.8311C15.1307 15.933 13.4266 17.6371 11.3248 17.6371C9.22297 17.6371 7.51889 15.933 7.51889 13.8311C7.51889 11.7293 9.22297 10.0252 11.3248 10.0252C13.4266 10.0252 15.1307 11.7293 15.1307 13.8311ZM3.8457 8.74264V22.8415C3.8457 23.1397 4.08746 23.3815 4.3857 23.3815C4.68394 23.3815 4.9257 23.1397 4.9257 22.8415V8.74264C4.9257 8.4444 4.68394 8.20264 4.3857 8.20264C4.08746 8.20264 3.8457 8.4444 3.8457 8.74264ZM22.1157 8.74264V22.8415C22.1157 23.1397 22.3574 23.3815 22.6557 23.3815C22.9539 23.3815 23.1957 23.1397 23.1957 22.8415V8.74264C23.1957 8.4444 22.9539 8.20264 22.6557 8.20264C22.3574 8.20264 22.1157 8.4444 22.1157 8.74264Z" fill="white"/>
</svg>
