<svg width="27" height="28" viewBox="0 0 27 28" fill="none" xmlns="http://www.w3.org/2000/svg">
<path d="M13.4996 13.8312C10.6309 13.8312 8.09961 11.4687 8.09961 8.4312C8.09961 5.3937 10.4621 3.19995 13.4996 3.19995C16.3684 3.19995 18.8996 5.56245 18.8996 8.59995C18.8996 11.6375 16.3684 13.8312 13.4996 13.8312ZM13.4996 4.3812C11.3059 4.3812 9.44961 6.23745 9.44961 8.4312C9.44961 10.625 11.1371 12.4812 13.4996 12.4812C15.8621 12.4812 17.5496 10.625 17.5496 8.4312C17.5496 6.23745 15.6934 4.3812 13.4996 4.3812Z" fill="white"/>
<path d="M21.9371 23.9562H3.88086V23.2812C3.88086 17.375 8.09961 12.65 13.1621 12.65C18.2246 12.65 22.4434 17.375 22.4434 23.1125V23.7875L21.9371 23.9562ZM5.23086 22.6062H21.2621C21.0934 17.8812 17.5496 14 13.3309 14C8.94336 14 5.56836 17.8812 5.23086 22.6062ZM18.7309 13.6625C18.3934 13.6625 18.0559 13.325 18.0559 12.9875C18.0559 12.65 18.3934 12.3125 18.7309 12.3125C20.4184 12.3125 21.9371 10.9625 21.9371 9.10624C21.9371 7.75624 21.0934 6.57499 19.7434 6.06874C19.4059 5.89999 19.2371 5.56249 19.4059 5.22499C19.5746 4.88749 19.9121 4.71874 20.2496 4.88749C22.1059 5.39374 23.2871 7.08124 23.2871 9.10624C23.1184 11.6375 21.0934 13.6625 18.7309 13.6625Z" fill="white"/>
<path d="M25.4805 21.7625H23.9617C23.6242 21.7625 23.2867 21.425 23.2867 21.0875C23.2867 20.75 23.6242 20.4125 23.9617 20.4125H24.8055C24.468 16.7 21.768 13.8312 18.5617 13.8312C18.2242 13.8312 17.8867 13.4937 17.8867 13.1562C17.8867 12.8187 18.2242 12.4812 18.5617 12.4812C22.7805 12.4812 26.1555 16.3625 26.1555 21.0875V21.7625H25.4805Z" fill="white"/>
<path d="M7.93047 13.6624C7.76172 13.6624 7.76172 13.6624 7.93047 13.6624C6.74922 13.6624 5.56797 13.3249 4.72422 12.4812C3.88047 11.6374 3.54297 10.4562 3.54297 9.27494C3.54297 7.41869 4.72422 5.73119 6.58047 5.05619C6.91797 4.88744 7.25547 5.05619 7.42422 5.39369C7.59297 5.73119 7.42422 6.06869 7.08672 6.23744C5.56797 6.74369 4.72422 7.92494 4.72422 9.27494C4.72422 10.1187 5.06172 10.9624 5.56797 11.4687C6.07422 12.1437 6.91797 12.3124 7.76172 12.4812C8.26797 12.4812 8.43672 12.8187 8.43672 13.1562C8.43672 13.4937 8.26797 13.6624 7.93047 13.6624Z" fill="white"/>
<path d="M2.36289 21.7625H0.337891V21.0875C0.337891 16.3625 3.71289 12.65 7.93164 12.65C8.26914 12.65 8.60664 12.9875 8.60664 13.325C8.60664 13.6625 8.26914 14 7.93164 14C4.72539 14 2.02539 16.8688 1.68789 20.5813H2.53164C2.86914 20.5813 3.20664 20.9188 3.20664 21.2563C3.03789 21.425 2.86914 21.7625 2.36289 21.7625Z" fill="white"/>
</svg>
