<svg width="10" height="18" viewBox="0 0 10 18" fill="none" xmlns="http://www.w3.org/2000/svg">
<path fill-rule="evenodd" clip-rule="evenodd" d="M7.18812 -0.000366211C8.39412 -0.000366211 8.99712 0.820434 8.99712 1.76093C8.99712 2.93543 7.94952 4.02173 6.58602 4.02173C5.44392 4.02173 4.77792 3.34673 4.80942 2.23073C4.80942 1.29203 5.60232 -0.000366211 7.18812 -0.000366211ZM3.47747 17.9996C2.52527 17.9996 1.82777 17.4128 2.49378 14.828L3.58638 10.2452C3.77628 9.51258 3.80778 9.21828 3.58638 9.21828C3.30107 9.21828 2.06628 9.72408 1.33458 10.2236L0.859375 9.43158C3.17418 7.46418 5.83728 6.31128 6.98028 6.31128C7.93158 6.31128 8.08998 7.45698 7.61478 9.21828L6.36288 14.0351C6.14148 14.8856 6.23598 15.179 6.45828 15.179C6.74358 15.179 7.67958 14.8262 8.59938 14.0927L9.13938 14.8253C6.88757 17.1176 4.42787 17.9996 3.47747 17.9996Z" fill="#9E9E9E"/>
</svg>
