<svg width="20" height="21" viewBox="0 0 20 21" fill="none" xmlns="http://www.w3.org/2000/svg">
<path d="M10.625 9.25001V7.37501L7.5 10.5L10.625 13.625V11.75H16.291L10.286 17.557L3.026 10.5L10.285 3.44201L14.131 7.18201C14.366 7.41001 14.684 7.53801 15.017 7.53801C15.35 7.53801 15.668 7.41001 15.904 7.18201C16.139 6.95201 16.271 6.64201 16.271 6.31901C16.271 5.99601 16.139 5.68601 15.904 5.45701L11.172 0.857007C10.9341 0.627001 10.6159 0.498914 10.285 0.500007C9.95446 0.499174 9.63662 0.627243 9.399 0.857007L0.368 9.63801C0.251843 9.74976 0.159393 9.88378 0.0961664 10.0321C0.03294 10.1803 0.000233946 10.3398 0 10.501C0 10.823 0.132 11.133 0.367 11.361L9.399 20.143C9.634 20.372 9.953 20.5 10.285 20.5C10.617 20.5 10.937 20.372 11.172 20.143L19.436 12.107C19.779 11.782 20 11.363 20 10.873C20 10.383 19.78 9.96301 19.426 9.62801C19.192 9.40601 18.877 9.25001 18.55 9.25001H10.625Z" fill="white"/>
</svg>
