<svg width="11" height="16" viewBox="0 0 11 16" fill="none" xmlns="http://www.w3.org/2000/svg">
<path d="M3.7769 7.86014L3.49835 8.13759L3.7769 8.41503L9.66553 14.2802C9.66564 14.2803 9.66575 14.2804 9.66585 14.2805C9.70916 14.324 9.74341 14.3755 9.76671 14.432C9.7901 14.4888 9.80197 14.5495 9.80173 14.6104L9.80168 14.6104L9.80175 14.6164C9.80241 14.6749 9.79114 14.7329 9.76854 14.787C9.74593 14.8412 9.71241 14.8904 9.67008 14.9315L9.67006 14.9314L9.66631 14.9352L9.14949 15.4499L9.14943 15.4499L9.14406 15.4555C9.10209 15.4989 9.05164 15.5336 8.99578 15.5573C8.93987 15.581 8.8797 15.5933 8.81885 15.5933C8.75796 15.5933 8.6977 15.581 8.64183 15.5573L8.48893 15.9178L8.64183 15.5573C8.58609 15.5337 8.5357 15.499 8.49364 15.4555L8.4937 15.4554L8.48806 15.4498L1.47307 8.47057C1.47278 8.47027 1.47249 8.46998 1.4722 8.46969C1.38459 8.38073 1.33578 8.26142 1.33578 8.13759C1.33578 8.01375 1.38459 7.89445 1.4722 7.80548C1.47249 7.80519 1.47278 7.8049 1.47307 7.8046L8.4784 0.834988C8.47865 0.83474 8.47891 0.834492 8.47916 0.834245C8.56849 0.74692 8.68903 0.697696 8.81493 0.697696C8.94038 0.697696 9.06049 0.746558 9.14972 0.833282L9.65635 1.34567L9.65622 1.34581L9.66501 1.35416C9.70828 1.39529 9.74268 1.44469 9.76612 1.49917C9.78952 1.55357 9.80161 1.61199 9.80173 1.67104C9.80162 1.73185 9.78933 1.79202 9.76549 1.84813C9.74163 1.90431 9.70659 1.95537 9.66244 1.99811L9.66242 1.99808L9.65847 2.00201L3.7769 7.86014Z" fill="#3182CE" stroke="#3182CE" stroke-width="0.783163"/>
</svg>
