<svg width="222" height="65" viewBox="0 0 222 65" fill="none" xmlns="http://www.w3.org/2000/svg">
<path fill-rule="evenodd" clip-rule="evenodd" d="M9.18158 33.1063L0 17.8182L10.7261 0.041681L32.1032 0L41.2848 15.2881L58.4105 15.2952L69 32.9276L58.2127 50.6022L41.1479 50.6964L32.5306 64.8565L11.2146 65L0.625172 47.3677L9.18158 33.1063ZM54.6636 44.69L61.8759 32.941L54.775 21.1176L40.5848 21.2476L34.1366 31.893L41.8496 44.7357L54.6636 44.69ZM28.9815 58.9442L35.4296 48.2989L27.7167 35.4562L14.9027 35.5019L7.69038 47.2509L14.7912 59.0743L28.9815 58.9442ZM28.3559 29.3941L35.5682 17.6451L28.4674 5.82168L14.2771 5.95173L7.0648 17.7007L14.1656 29.5241L28.3559 29.3941Z" fill="white"/>
<path d="M96.632 12.3V11.112H105.866V12.3H101.888V24H100.592V12.3H96.632ZM110.862 15.18V16.296H110.178C108.576 16.296 107.55 17.376 107.55 19.032V24H106.308V15.288H107.478L107.568 16.638C107.91 15.702 108.828 15.09 110.052 15.09C110.322 15.09 110.556 15.108 110.862 15.18ZM118.633 15.288H119.875V24H118.795L118.633 22.524C118.147 23.532 116.941 24.216 115.573 24.216C113.521 24.216 112.405 22.812 112.405 20.688V15.27H113.665V20.292C113.665 22.362 114.583 23.1 115.969 23.1C117.643 23.1 118.633 21.984 118.633 19.914V15.288ZM121.548 21.552H122.736C122.736 22.56 123.492 23.19 124.716 23.19C126.066 23.19 126.858 22.614 126.858 21.678C126.858 20.958 126.498 20.544 125.472 20.292L123.978 19.914C122.466 19.536 121.728 18.744 121.728 17.556C121.728 16.026 123.006 15.054 124.878 15.054C126.714 15.054 127.902 16.062 127.956 17.682H126.75C126.714 16.674 126.012 16.08 124.842 16.08C123.618 16.08 122.934 16.602 122.934 17.538C122.934 18.204 123.402 18.672 124.356 18.906L125.85 19.284C127.362 19.662 128.046 20.364 128.046 21.624C128.046 23.19 126.714 24.216 124.734 24.216C122.772 24.216 121.548 23.172 121.548 21.552ZM132.089 24H130.865V16.332H129.119V15.288H130.865V12.534H132.089V15.288H133.835V16.332H132.089V24ZM140.714 24H139.4L144.134 11.112H145.736L150.524 24H149.174L147.914 20.58H141.974L140.714 24ZM144.764 12.93L142.37 19.446H147.5L145.088 12.93C145.034 12.75 144.944 12.534 144.926 12.408C144.908 12.516 144.836 12.75 144.764 12.93ZM151.135 19.662C151.135 16.926 152.809 15.054 155.347 15.054C157.363 15.054 158.839 16.224 159.181 18.024H157.939C157.615 16.818 156.571 16.152 155.365 16.152C153.601 16.152 152.359 17.502 152.359 19.644C152.359 21.714 153.511 23.1 155.275 23.1C156.571 23.1 157.615 22.38 157.957 21.264H159.217C158.803 23.046 157.255 24.216 155.275 24.216C152.809 24.216 151.135 22.398 151.135 19.662ZM160.487 19.662C160.487 16.926 162.161 15.054 164.699 15.054C166.715 15.054 168.191 16.224 168.533 18.024H167.291C166.967 16.818 165.923 16.152 164.717 16.152C162.953 16.152 161.711 17.502 161.711 19.644C161.711 21.714 162.863 23.1 164.627 23.1C165.923 23.1 166.967 22.38 167.309 21.264H168.569C168.155 23.046 166.607 24.216 164.627 24.216C162.161 24.216 160.487 22.398 160.487 19.662ZM169.838 19.644C169.838 16.98 171.71 15.054 174.266 15.054C176.822 15.054 178.694 16.98 178.694 19.644C178.694 22.29 176.822 24.216 174.266 24.216C171.71 24.216 169.838 22.29 169.838 19.644ZM171.098 19.626C171.098 21.678 172.394 23.1 174.266 23.1C176.12 23.1 177.434 21.678 177.434 19.626C177.434 17.61 176.12 16.17 174.266 16.17C172.394 16.17 171.098 17.61 171.098 19.626ZM186.59 15.288H187.832V24H186.752L186.59 22.524C186.104 23.532 184.898 24.216 183.53 24.216C181.478 24.216 180.362 22.812 180.362 20.688V15.27H181.622V20.292C181.622 22.362 182.54 23.1 183.926 23.1C185.6 23.1 186.59 21.984 186.59 19.914V15.288ZM191.661 24H190.419V15.288H191.499L191.679 16.8C192.255 15.684 193.407 15.054 194.667 15.054C197.061 15.054 198.051 16.476 198.051 18.672V24H196.809V18.942C196.809 16.908 195.891 16.188 194.451 16.188C192.669 16.188 191.661 17.484 191.661 19.446V24ZM202.524 24H201.3V16.332H199.554V15.288H201.3V12.534H202.524V15.288H204.27V16.332H202.524V24ZM100.957 48H99.6607V35.112H104.467C107.077 35.112 108.661 36.552 108.661 38.838C108.661 40.692 107.689 41.988 106.033 42.438L108.787 48H107.347L104.719 42.654H100.957V48ZM100.957 36.282V41.484H104.503C106.285 41.484 107.329 40.512 107.329 38.874C107.329 37.2 106.231 36.282 104.467 36.282H100.957ZM113.926 48.216C111.37 48.216 109.66 46.38 109.66 43.644C109.66 40.926 111.352 39.054 113.836 39.054C116.194 39.054 117.796 40.728 117.796 43.194V43.806H110.866C110.956 45.93 112.072 47.154 113.944 47.154C115.366 47.154 116.284 46.542 116.608 45.39H117.796C117.328 47.226 115.978 48.216 113.926 48.216ZM113.836 40.116C112.198 40.116 111.118 41.196 110.902 42.906H116.554C116.554 41.232 115.474 40.116 113.836 40.116ZM119.169 43.662C119.169 40.926 120.843 39.054 123.381 39.054C125.397 39.054 126.873 40.224 127.215 42.024H125.973C125.649 40.818 124.605 40.152 123.399 40.152C121.635 40.152 120.393 41.502 120.393 43.644C120.393 45.714 121.545 47.1 123.309 47.1C124.605 47.1 125.649 46.38 125.991 45.264H127.251C126.837 47.046 125.289 48.216 123.309 48.216C120.843 48.216 119.169 46.398 119.169 43.662ZM128.521 43.644C128.521 40.98 130.393 39.054 132.949 39.054C135.505 39.054 137.377 40.98 137.377 43.644C137.377 46.29 135.505 48.216 132.949 48.216C130.393 48.216 128.521 46.29 128.521 43.644ZM129.781 43.626C129.781 45.678 131.077 47.1 132.949 47.1C134.803 47.1 136.117 45.678 136.117 43.626C136.117 41.61 134.803 40.17 132.949 40.17C131.077 40.17 129.781 41.61 129.781 43.626ZM140.605 48H139.363V39.288H140.443L140.623 40.8C141.199 39.684 142.351 39.054 143.611 39.054C146.005 39.054 146.995 40.476 146.995 42.672V48H145.753V42.942C145.753 40.908 144.835 40.188 143.395 40.188C141.613 40.188 140.605 41.484 140.605 43.446V48ZM148.859 43.662C148.859 40.926 150.533 39.054 153.071 39.054C155.087 39.054 156.563 40.224 156.905 42.024H155.663C155.339 40.818 154.295 40.152 153.089 40.152C151.325 40.152 150.083 41.502 150.083 43.644C150.083 45.714 151.235 47.1 152.999 47.1C154.295 47.1 155.339 46.38 155.681 45.264H156.941C156.527 47.046 154.979 48.216 152.999 48.216C150.533 48.216 148.859 46.398 148.859 43.662ZM159.434 36.894C158.93 36.894 158.516 36.48 158.516 35.976C158.516 35.472 158.93 35.04 159.434 35.04C159.938 35.04 160.37 35.472 160.37 35.976C160.37 36.48 159.938 36.894 159.434 36.894ZM158.822 48V39.288H160.064V48H158.822ZM163.95 48H162.708V34.878H163.95V48ZM167.204 36.894C166.7 36.894 166.286 36.48 166.286 35.976C166.286 35.472 166.7 35.04 167.204 35.04C167.708 35.04 168.14 35.472 168.14 35.976C168.14 36.48 167.708 36.894 167.204 36.894ZM166.592 48V39.288H167.834V48H166.592ZM172.926 48.216C171.072 48.216 169.974 47.172 169.974 45.642C169.974 44.04 171.198 43.032 173.232 42.87L176.112 42.636V42.348C176.112 40.638 175.086 40.098 173.808 40.098C172.296 40.098 171.396 40.782 171.396 41.952H170.262C170.262 40.188 171.702 39.054 173.844 39.054C175.86 39.054 177.336 40.062 177.336 42.366V48H176.292L176.13 46.47C175.59 47.568 174.402 48.216 172.926 48.216ZM173.214 47.208C175.05 47.208 176.112 45.93 176.112 44.04V43.572L173.538 43.77C171.9 43.914 171.234 44.634 171.234 45.606C171.234 46.668 172.026 47.208 173.214 47.208ZM181.668 48H180.444V40.332H178.698V39.288H180.444V36.534H181.668V39.288H183.414V40.332H181.668V48ZM185.643 36.894C185.139 36.894 184.725 36.48 184.725 35.976C184.725 35.472 185.139 35.04 185.643 35.04C186.147 35.04 186.579 35.472 186.579 35.976C186.579 36.48 186.147 36.894 185.643 36.894ZM185.031 48V39.288H186.273V48H185.031ZM188.251 43.644C188.251 40.98 190.123 39.054 192.679 39.054C195.235 39.054 197.107 40.98 197.107 43.644C197.107 46.29 195.235 48.216 192.679 48.216C190.123 48.216 188.251 46.29 188.251 43.644ZM189.511 43.626C189.511 45.678 190.807 47.1 192.679 47.1C194.533 47.1 195.847 45.678 195.847 43.626C195.847 41.61 194.533 40.17 192.679 40.17C190.807 40.17 189.511 41.61 189.511 43.626ZM200.336 48H199.094V39.288H200.174L200.354 40.8C200.93 39.684 202.082 39.054 203.342 39.054C205.736 39.054 206.726 40.476 206.726 42.672V48H205.484V42.942C205.484 40.908 204.566 40.188 203.126 40.188C201.344 40.188 200.336 41.484 200.336 43.446V48Z" fill="white"/>
</svg>
