<svg width="21" height="20" viewBox="0 0 21 20" fill="none" xmlns="http://www.w3.org/2000/svg">
<path d="M20.6193 17.9925L15.9712 13.4586C17.0902 12.0054 17.6943 10.2367 17.6923 8.4192C17.6923 3.77688 13.8203 0 9.061 0C4.30172 0 0.429688 3.77688 0.429688 8.4192C0.429688 13.0615 4.30172 16.8384 9.061 16.8384C10.9242 16.8404 12.7376 16.2511 14.2273 15.1596L18.8755 19.6935C19.1107 19.8986 19.4176 20.0081 19.7331 19.9995C20.0486 19.9909 20.3487 19.8648 20.5718 19.6472C20.795 19.4295 20.9242 19.1367 20.9331 18.829C20.9419 18.5213 20.8296 18.222 20.6193 17.9925ZM2.89578 8.4192C2.89578 7.2298 3.25736 6.06711 3.9348 5.07816C4.61225 4.08921 5.57512 3.31842 6.70167 2.86325C7.82822 2.40809 9.06784 2.289 10.2638 2.52104C11.4597 2.75308 12.5582 3.32583 13.4205 4.16686C14.2827 5.00789 14.8699 6.07944 15.1078 7.24598C15.3456 8.41253 15.2236 9.62169 14.7569 10.7205C14.2903 11.8194 13.5001 12.7586 12.4862 13.4194C11.4723 14.0802 10.2804 14.4329 9.061 14.4329C7.42648 14.431 5.85947 13.7968 4.70369 12.6694C3.54792 11.5421 2.89774 10.0135 2.89578 8.4192Z" fill="#000429"/>
</svg>
